<svg xmlns="http://www.w3.org/2000/svg" viewBox="0 0 32 32">
  <!-- Background circle - terracotta -->
  <circle cx="16" cy="16" r="16" fill="#C1513A"/>
  <!-- Simplified olive tree in white - centered -->
  <!-- Trunk -->
  <path d="M16 28 L16 18" stroke="white" stroke-width="1.5" stroke-linecap="round"/>
  <!-- Main branches -->
  <path d="M16 22 L11 17" stroke="white" stroke-width="1.2" stroke-linecap="round"/>
  <path d="M16 22 L21 17" stroke="white" stroke-width="1.2" stroke-linecap="round"/>
  <path d="M16 19 L13 14" stroke="white" stroke-width="1" stroke-linecap="round"/>
  <path d="M16 19 L19 14" stroke="white" stroke-width="1" stroke-linecap="round"/>
  <path d="M16 18 L16 11" stroke="white" stroke-width="1" stroke-linecap="round"/>
  <!-- Leaves -->
  <ellipse cx="10" cy="15" rx="2" ry="1.2" fill="white" transform="rotate(-30 10 15)"/>
  <ellipse cx="11.5" cy="15" rx="2" ry="1.2" fill="white" transform="rotate(20 11.5 15)"/>
  <ellipse cx="22" cy="15" rx="2" ry="1.2" fill="white" transform="rotate(30 22 15)"/>
  <ellipse cx="20.5" cy="15" rx="2" ry="1.2" fill="white" transform="rotate(-20 20.5 15)"/>
  <ellipse cx="16" cy="10" rx="2" ry="1.2" fill="white"/>
  <ellipse cx="13" cy="13" rx="1.8" ry="1" fill="white" transform="rotate(-15 13 13)"/>
  <ellipse cx="19" cy="13" rx="1.8" ry="1" fill="white" transform="rotate(15 19 13)"/>
</svg>
