<svg xmlns="http://www.w3.org/2000/svg" viewBox="0 0 80 100" fill="none">
  <!-- Trunk -->
  <path d="M40 95 L40 55" stroke="currentColor" stroke-width="3" stroke-linecap="round"/>
  <!-- Main branches -->
  <path d="M40 70 L25 55" stroke="currentColor" stroke-width="2.5" stroke-linecap="round"/>
  <path d="M40 70 L55 55" stroke="currentColor" stroke-width="2.5" stroke-linecap="round"/>
  <path d="M40 60 L30 45" stroke="currentColor" stroke-width="2" stroke-linecap="round"/>
  <path d="M40 60 L50 45" stroke="currentColor" stroke-width="2" stroke-linecap="round"/>
  <path d="M40 55 L40 35" stroke="currentColor" stroke-width="2" stroke-linecap="round"/>
  <!-- Left sub-branches -->
  <path d="M25 55 L18 45" stroke="currentColor" stroke-width="1.5" stroke-linecap="round"/>
  <path d="M25 55 L28 44" stroke="currentColor" stroke-width="1.5" stroke-linecap="round"/>
  <!-- Right sub-branches -->
  <path d="M55 55 L62 45" stroke="currentColor" stroke-width="1.5" stroke-linecap="round"/>
  <path d="M55 55 L52 44" stroke="currentColor" stroke-width="1.5" stroke-linecap="round"/>
  <!-- Leaves - small ovals -->
  <ellipse cx="18" cy="43" rx="4" ry="2.5" fill="currentColor" transform="rotate(-30 18 43)"/>
  <ellipse cx="28" cy="42" rx="4" ry="2.5" fill="currentColor" transform="rotate(20 28 42)"/>
  <ellipse cx="62" cy="43" rx="4" ry="2.5" fill="currentColor" transform="rotate(30 62 43)"/>
  <ellipse cx="52" cy="42" rx="4" ry="2.5" fill="currentColor" transform="rotate(-20 52 42)"/>
  <ellipse cx="30" cy="43" rx="4" ry="2.5" fill="currentColor" transform="rotate(-20 30 43)"/>
  <ellipse cx="50" cy="43" rx="4" ry="2.5" fill="currentColor" transform="rotate(20 50 43)"/>
  <ellipse cx="40" cy="33" rx="4" ry="2.5" fill="currentColor" transform="rotate(0 40 33)"/>
  <ellipse cx="35" cy="38" rx="3.5" ry="2" fill="currentColor" transform="rotate(-15 35 38)"/>
  <ellipse cx="45" cy="38" rx="3.5" ry="2" fill="currentColor" transform="rotate(15 45 38)"/>
  <!-- Olive fruits - small circles -->
  <circle cx="22" cy="50" r="2" fill="currentColor" opacity="0.7"/>
  <circle cx="58" cy="50" r="2" fill="currentColor" opacity="0.7"/>
  <circle cx="33" cy="48" r="2" fill="currentColor" opacity="0.7"/>
</svg>
